<?xml version="1.0" standalone="no"?>
<!DOCTYPE svg PUBLIC "-//W3C//DTD SVG 20010904//EN"
 "http://www.w3.org/TR/2001/REC-SVG-20010904/DTD/svg10.dtd">
<svg version="1.0" xmlns="http://www.w3.org/2000/svg"
 width="800.000000pt" height="533.000000pt" viewBox="0 0 800.000000 533.000000"
 preserveAspectRatio="xMidYMid meet">

<g transform="translate(0.000000,533.000000) scale(0.100000,-0.100000)"
fill="#000000" stroke="none">
<path d="M32 4662 c-17 -2 -32 -6 -32 -10 0 -4 155 -7 345 -7 190 0 345 3 345
8 0 4 -12 8 -27 9 -48 3 -596 3 -631 0z"/>
<path d="M7360 4650 c-8 -5 -12 -11 -10 -14 3 -2 146 -6 317 -7 229 -2 316 0
324 8 9 9 -60 12 -296 13 -169 0 -310 2 -314 4 -4 3 -13 1 -21 -4z"/>
<path d="M2168 4528 c-36 -29 -49 -216 -27 -390 6 -48 17 -95 24 -104 21 -29
54 -8 81 54 25 57 98 162 113 162 4 0 35 -35 68 -78 l60 -78 -29 -34 c-83 -99
-92 -197 -10 -113 21 21 48 52 61 68 l23 30 34 -39 c19 -22 34 -42 34 -45 0
-4 -18 -28 -40 -55 -44 -53 -52 -91 -20 -101 27 -9 42 2 86 59 l38 50 64 -70
c36 -38 91 -103 122 -144 63 -81 218 -258 339 -385 l76 -80 48 9 c26 5 47 13
47 17 0 4 -77 89 -171 189 -94 101 -213 233 -264 295 -51 62 -122 137 -156
168 l-63 55 57 76 c71 94 85 122 68 139 -9 9 -30 -7 -96 -78 l-85 -89 -35 34
c-19 19 -35 36 -35 39 0 4 32 40 70 81 71 76 81 96 56 106 -21 8 -35 -2 -111
-75 l-66 -64 -40 39 c-23 21 -54 55 -70 75 l-29 37 63 40 c34 22 91 56 127 76
118 63 91 88 -110 101 -103 6 -240 22 -271 31 -8 2 -22 -2 -31 -8z m202 -89
c58 -6 106 -12 107 -13 1 -1 -28 -22 -65 -46 -37 -25 -97 -75 -134 -113 l-68
-69 0 124 c0 69 3 128 6 131 4 4 16 5 28 2 12 -3 68 -10 126 -16z"/>
<path d="M5725 4525 c-44 -7 -129 -16 -190 -20 -163 -10 -203 -24 -177 -60 4
-6 50 -35 102 -63 52 -29 108 -64 124 -76 l28 -24 -68 -71 -69 -72 -78 71
c-43 38 -84 70 -93 70 -37 0 -23 -33 45 -107 39 -42 71 -80 71 -83 0 -3 -16
-21 -35 -40 l-34 -33 -85 89 c-64 67 -88 86 -97 77 -17 -17 -4 -44 61 -129 33
-43 60 -81 60 -84 0 -3 -29 -31 -65 -63 -35 -31 -92 -92 -126 -135 -72 -88
-206 -238 -325 -362 -45 -47 -96 -102 -114 -122 l-32 -38 27 -10 c14 -5 34
-14 44 -20 16 -8 44 19 189 178 94 103 211 237 260 297 103 127 176 205 190
205 5 0 22 -17 38 -37 48 -65 84 -81 102 -45 12 23 6 39 -40 94 l-39 47 32 41
c18 22 35 40 38 40 3 -1 26 -26 51 -56 54 -66 77 -82 87 -58 8 20 -26 91 -65
136 l-30 33 60 75 c33 41 63 76 68 78 14 5 78 -82 110 -151 31 -65 61 -90 82
-69 18 18 29 88 35 232 6 163 -6 253 -37 270 -10 6 -20 9 -22 9 -2 -1 -39 -7
-83 -14z m63 -201 l2 -129 -57 62 c-32 34 -93 87 -135 117 l-78 54 68 7 c37 4
92 11 122 15 30 4 60 7 65 5 6 -1 11 -55 13 -131z"/>
<path d="M3941 4356 c-74 -25 -115 -66 -162 -158 -16 -31 -43 -73 -60 -93
l-32 -36 -86 7 -86 6 -65 -47 c-36 -25 -99 -64 -141 -86 -72 -37 -149 -102
-137 -114 3 -4 21 3 39 15 19 11 66 30 104 41 86 26 110 38 165 84 24 20 52
41 63 46 23 13 26 19 -61 -114 -58 -88 -170 -207 -195 -207 -8 0 16 45 55 102
10 14 18 29 18 31 0 8 -259 -116 -260 -124 0 -3 97 -110 216 -237 160 -171
225 -234 251 -243 19 -6 63 -33 98 -59 l64 -48 6 29 c11 51 52 74 167 94 98
17 106 17 137 1 38 -20 56 -58 66 -136 6 -48 -5 -182 -21 -260 -9 -43 129 111
165 185 42 84 110 158 176 190 43 21 91 66 238 223 101 109 198 213 215 233
l31 36 -24 34 c-27 38 -44 109 -26 109 6 0 11 -4 11 -8 0 -4 14 -30 30 -56 25
-39 33 -46 45 -36 13 10 8 21 -28 73 -47 67 -95 94 -252 142 -57 18 -98 38
-127 62 -42 35 -43 35 -114 29 l-71 -7 -74 119 c-46 74 -92 135 -122 160 -44
38 -53 42 -100 41 -29 0 -81 -11 -116 -23z m108 -150 c15 -27 3 -59 -29 -76
-11 -6 -33 -37 -50 -69 -31 -62 -70 -101 -101 -101 -33 0 -78 -53 -108 -125
-35 -82 -64 -121 -133 -176 -48 -37 -75 -46 -50 -16 18 21 41 93 64 197 25
119 51 187 84 225 14 17 22 24 19 17 -9 -17 -65 -286 -61 -290 2 -2 19 34 38
80 29 69 41 86 71 103 30 16 42 34 73 105 46 104 54 114 54 66 l0 -37 40 28
c22 15 45 43 52 61 14 38 21 40 37 8z m193 -187 c75 -109 98 -170 98 -261 0
-54 -3 -69 -11 -61 -7 7 -15 29 -18 50 -6 34 -10 38 -35 36 -52 -4 -125 131
-125 232 -1 61 8 97 22 92 6 -2 37 -41 69 -88z m270 4 c9 -10 21 -29 28 -43
16 -29 18 -128 4 -153 -9 -15 -14 -10 -34 33 -18 39 -33 54 -66 70 -43 21 -54
36 -54 71 0 37 94 53 122 22z m193 -115 c14 -29 25 -68 25 -86 0 -29 -2 -31
-19 -20 -28 17 -78 138 -63 152 16 17 35 1 57 -46z m-1109 -30 c-3 -18 -19
-45 -34 -61 -26 -28 -102 -73 -102 -61 0 10 124 152 134 153 5 1 6 -13 2 -31z
m320 -59 c-9 -58 -38 -110 -84 -151 -60 -55 -79 -62 -92 -39 -5 11 -10 24 -10
30 0 10 179 201 188 201 2 0 2 -18 -2 -41z"/>
<path d="M7918 4333 c18 -2 45 -2 60 0 15 2 0 4 -33 4 -33 0 -45 -2 -27 -4z"/>
<path d="M0 3899 c0 -8 143 -11 530 -12 54 0 85 4 88 11 3 9 -80 12 -307 11
-181 0 -311 -5 -311 -10z"/>
<path d="M7346 3895 c-3 -9 -6 -18 -6 -19 0 -1 125 -2 278 -2 152 1 297 -1
322 -4 36 -4 45 -2 48 11 3 15 -23 17 -274 17 -152 1 -296 4 -319 8 -34 5 -43
3 -49 -11z"/>
<path d="M2370 3715 c0 -24 -2 -27 -11 -15 -7 11 -8 6 -4 -19 6 -26 4 -32 -6
-26 -9 6 -11 2 -7 -13 4 -12 2 -22 -3 -22 -5 0 -9 -7 -9 -16 0 -8 -5 -12 -11
-8 -8 4 -9 -1 -4 -16 5 -16 4 -20 -5 -15 -18 11 -2 -37 18 -52 24 -20 9 -24
-23 -7 -19 9 -25 10 -17 3 18 -19 15 -50 -7 -56 -30 -8 -32 -29 -5 -58 l25
-28 -25 7 c-15 4 -26 2 -26 -4 0 -5 11 -12 25 -16 37 -9 31 -28 -6 -20 -27 5
-30 4 -19 -9 9 -10 9 -15 1 -15 -8 0 -8 -5 0 -18 16 -25 87 -46 105 -31 11 9
14 6 14 -15 0 -15 4 -25 10 -21 5 3 7 12 4 20 -5 12 9 14 83 12 78 -2 89 -4
95 -22 l6 -20 1 20 c1 18 7 20 58 18 85 -4 97 -6 105 -23 6 -13 7 -13 7 0 1 9
12 17 27 18 37 3 64 20 58 37 -4 8 -11 12 -16 9 -6 -4 -7 0 -1 12 5 11 8 26 7
34 -1 8 -2 23 -3 32 -1 11 -6 15 -16 12 -10 -4 -15 0 -15 14 0 12 -5 24 -10
27 -6 4 -8 15 -5 26 4 11 2 19 -6 19 -8 0 -8 4 2 16 8 10 9 18 2 22 -5 4 -13
21 -18 37 -6 27 -8 28 -15 10 -4 -11 -6 -23 -3 -27 2 -5 -1 -8 -7 -8 -7 0 -10
-7 -6 -15 3 -8 0 -20 -7 -27 -16 -17 -20 -45 -7 -53 19 -12 11 -26 -9 -16 -16
9 -17 7 -13 -16 4 -23 3 -25 -10 -13 -8 8 -13 22 -10 32 3 13 -1 15 -19 11
-18 -5 -21 -3 -16 10 3 9 0 23 -8 31 -18 18 -19 38 -3 54 9 9 8 12 -5 12 -20
0 -21 4 -7 31 9 15 7 19 -6 19 -11 0 -15 6 -11 20 3 10 -1 27 -9 37 -13 17
-13 17 -15 -2 -1 -11 -2 -26 -2 -32 1 -7 -3 -13 -7 -13 -4 0 -10 -14 -14 -31
-3 -17 -10 -28 -15 -25 -12 8 -22 -20 -14 -41 4 -10 14 -24 22 -31 14 -12 14
-13 -4 -6 -11 4 -35 7 -52 6 -35 -2 -41 6 -21 26 9 9 9 12 -1 12 -8 0 -11 6
-7 16 5 14 4 15 -9 4 -13 -10 -15 -9 -15 9 0 12 5 32 11 43 6 11 7 18 2 15 -5
-3 -15 -2 -23 3 -12 7 -12 12 3 27 15 18 15 20 -3 36 -11 9 -17 23 -14 31 3 8
-1 25 -10 38 l-16 22 0 -29z m130 -280 c0 -8 -4 -15 -10 -15 -5 0 -7 7 -4 15
4 8 8 15 10 15 2 0 4 -7 4 -15z m-25 -65 c-3 -5 -10 -10 -16 -10 -5 0 -9 5 -9
10 0 6 7 10 16 10 8 0 12 -4 9 -10z m175 -20 c0 -5 -5 -10 -11 -10 -5 0 -7 5
-4 10 3 6 8 10 11 10 2 0 4 -4 4 -10z m25 -20 c3 -5 1 -10 -4 -10 -6 0 -11 5
-11 10 0 6 2 10 4 10 3 0 8 -4 11 -10z m-228 -46 c-3 -3 -12 -4 -19 -1 -8 3
-5 6 6 6 11 1 17 -2 13 -5z m180 -10 c-3 -3 -12 -4 -19 -1 -8 3 -5 6 6 6 11 1
17 -2 13 -5z"/>
<path d="M5612 3717 c-7 -16 -10 -32 -7 -37 3 -5 -2 -16 -12 -25 -14 -14 -14
-20 -4 -37 10 -17 10 -22 0 -29 -7 -4 -17 -5 -22 -2 -5 3 -4 -4 2 -15 18 -33
13 -62 -11 -71 -14 -5 -17 -10 -10 -15 22 -14 12 -26 -20 -24 -18 1 -42 -2
-53 -6 -18 -7 -18 -6 -4 6 19 16 32 48 19 48 -5 0 -6 7 -3 17 4 10 2 14 -5 9
-12 -7 -27 29 -17 44 3 5 0 10 -8 10 -8 0 -15 6 -14 13 0 6 -1 21 -2 32 -2 19
-2 19 -15 2 -8 -10 -12 -27 -9 -37 4 -14 0 -20 -11 -20 -14 0 -15 -3 -5 -22 9
-16 9 -23 1 -26 -7 -2 -9 -15 -5 -33 3 -19 1 -29 -6 -29 -7 0 -9 -4 -6 -10 3
-5 2 -10 -4 -10 -6 0 -8 -7 -4 -17 5 -13 2 -15 -16 -10 -18 4 -22 2 -19 -11 3
-10 -2 -24 -10 -32 -13 -12 -14 -10 -10 13 4 23 3 25 -13 16 -23 -12 -24 -3
-3 19 11 11 13 17 5 20 -6 2 -9 8 -5 13 3 5 0 9 -5 9 -6 0 -11 9 -11 20 0 27
-21 70 -31 64 -5 -3 -9 -14 -9 -25 0 -10 -5 -19 -10 -19 -7 0 -7 -6 0 -20 7
-14 7 -20 0 -20 -6 0 -8 -10 -4 -25 4 -15 2 -25 -5 -25 -6 0 -11 -9 -11 -20 0
-11 -7 -20 -15 -20 -8 0 -16 -6 -16 -12 -1 -7 -2 -20 -3 -28 -1 -8 2 -23 7
-34 6 -12 5 -16 -1 -12 -5 3 -12 -1 -16 -9 -6 -17 21 -34 58 -37 15 -1 26 -9
27 -18 0 -13 1 -13 7 0 7 15 20 18 109 22 45 3 53 0 56 -17 4 -17 4 -17 6 3 0
13 4 21 9 18 4 -2 45 -1 90 3 l82 7 1 -26 c2 -24 2 -24 6 -2 3 16 10 22 19 18
22 -8 90 15 103 36 8 13 8 18 0 18 -8 0 -8 5 1 15 11 13 8 14 -21 9 -32 -5
-33 -5 -15 10 11 9 23 16 28 16 4 0 8 5 8 10 0 6 -11 8 -26 4 l-25 -7 25 28
c27 29 25 50 -5 58 -19 5 -28 47 -9 47 6 0 10 4 10 9 0 6 -12 4 -27 -4 -31
-16 -44 -11 -21 8 19 14 36 63 19 53 -15 -10 -14 7 2 23 10 11 9 13 -5 8 -12
-4 -18 -1 -18 8 0 8 -4 15 -9 15 -5 0 -7 10 -3 22 4 15 2 19 -7 13 -10 -6 -12
0 -6 26 4 24 3 30 -4 20 -7 -11 -10 -8 -13 15 l-3 29 -13 -28z m-98 -282 c3
-8 1 -15 -4 -15 -6 0 -10 7 -10 15 0 8 2 15 4 15 2 0 6 -7 10 -15z m36 -65 c0
-5 -4 -10 -9 -10 -6 0 -13 5 -16 10 -3 6 1 10 9 10 9 0 16 -4 16 -10z m-185
-20 c3 -5 1 -10 -4 -10 -6 0 -11 5 -11 10 0 6 2 10 4 10 3 0 8 -4 11 -10z
m-25 -20 c0 -5 -5 -10 -11 -10 -5 0 -7 5 -4 10 3 6 8 10 11 10 2 0 4 -4 4 -10z
m237 -46 c-3 -3 -12 -4 -19 -1 -8 3 -5 6 6 6 11 1 17 -2 13 -5z m-180 -10 c-3
-3 -12 -4 -19 -1 -8 3 -5 6 6 6 11 1 17 -2 13 -5z"/>
<path d="M7830 3630 c-70 -6 -66 -7 48 -8 76 -1 122 2 122 8 0 11 -46 11 -170
0z"/>
<path d="M7628 3623 c7 -3 16 -2 19 1 4 3 -2 6 -13 5 -11 0 -14 -3 -6 -6z"/>
<path d="M5103 3144 c-65 -24 -135 -107 -161 -191 -32 -105 -34 -145 -27 -475
l8 -308 73 0 74 0 0 101 c0 99 0 100 23 93 41 -12 113 -52 161 -88 l47 -36 54
40 c30 22 55 45 55 50 0 18 -133 108 -200 136 -36 15 -66 28 -68 30 -2 1 22
35 52 75 154 204 205 399 133 508 -44 67 -142 95 -224 65z m93 -136 c14 -23 5
-108 -19 -167 -26 -64 -97 -181 -109 -181 -22 0 4 213 34 283 28 64 75 97 94
65z"/>
<path d="M2993 3068 c-28 -46 -71 -121 -94 -168 l-43 -85 -18 65 c-19 68 -78
234 -89 252 -5 7 -31 1 -77 -17 l-70 -27 17 -42 c25 -57 52 -146 101 -321 l41
-151 -30 -81 c-37 -101 -62 -151 -95 -190 l-25 -30 47 -46 c26 -26 53 -47 59
-47 16 0 71 71 108 142 l32 60 28 -47 c58 -101 139 -164 208 -165 21 0 27 5
27 23 -1 54 -23 112 -58 152 -20 24 -59 85 -87 138 -49 93 -49 96 -36 133 35
101 168 359 227 441 15 21 13 22 -46 57 -34 20 -64 36 -68 36 -4 0 -31 -37
-59 -82z"/>
<path d="M3317 3136 c-21 -8 -40 -16 -41 -18 -2 -1 -6 -216 -9 -475 l-6 -473
73 0 73 0 7 61 c3 34 6 117 6 184 l0 123 54 26 c68 33 154 125 192 203 34 70
40 177 12 229 -24 44 -86 101 -137 126 -56 27 -170 34 -224 14z m166 -144 c15
-10 34 -27 42 -38 35 -46 5 -151 -60 -214 l-35 -34 0 152 c0 165 1 168 53 134z"/>
<path d="M3905 3136 l-60 -11 -6 -95 c-4 -52 -17 -158 -30 -235 -17 -106 -23
-182 -23 -310 -1 -163 0 -172 24 -215 52 -92 123 -113 286 -85 l104 18 0 68
c0 38 -4 69 -9 69 -5 0 -45 -7 -88 -15 -104 -20 -140 -19 -152 3 -30 57 -23
222 24 523 33 205 33 301 1 298 -6 -1 -38 -6 -71 -13z"/>
<path d="M4491 3139 c-112 -45 -190 -199 -212 -416 -18 -174 14 -346 80 -438
39 -55 109 -97 171 -103 133 -13 236 94 283 292 17 74 14 316 -6 396 -33 135
-92 225 -172 261 -43 20 -106 23 -144 8z m103 -154 c13 -14 34 -58 47 -98 21
-62 24 -91 24 -217 0 -148 -10 -208 -46 -280 -40 -81 -86 -90 -131 -25 -86
123 -70 483 27 610 31 42 48 44 79 10z"/>
<path d="M0 3130 c0 -5 11 -10 25 -10 14 0 25 5 25 10 0 6 -11 10 -25 10 -14
0 -25 -4 -25 -10z"/>
<path d="M283 3133 c26 -2 68 -2 95 0 26 2 4 3 -48 3 -52 0 -74 -1 -47 -3z"/>
<path d="M2340 3131 c-116 -35 -178 -129 -201 -303 -14 -98 -6 -469 10 -521
36 -112 161 -162 310 -122 30 8 58 18 62 22 5 5 -11 31 -35 58 -43 49 -43 49
-107 50 -58 0 -65 2 -75 25 -7 14 -15 75 -19 136 -7 125 -9 124 78 124 l38 0
-3 68 -3 67 -52 -1 -53 -2 0 42 c0 59 25 154 47 185 24 32 72 50 136 50 l47 1
0 65 0 65 -77 -1 c-43 0 -89 -4 -103 -8z"/>
<path d="M5680 3131 c-115 -35 -175 -124 -200 -298 -16 -105 -9 -474 10 -523
18 -49 56 -97 90 -115 64 -33 225 -27 275 9 17 12 15 17 -29 64 l-47 50 -57
-5 c-45 -4 -60 -2 -71 11 -14 17 -39 252 -27 263 3 3 31 8 61 11 l56 5 -3 66
-3 66 -52 -1 -53 -2 0 42 c0 59 25 154 47 185 24 32 72 50 136 50 l47 1 0 65
0 65 -77 -1 c-43 0 -89 -4 -103 -8z"/>
<path d="M7460 3130 c-10 -6 54 -10 185 -11 110 0 227 -4 260 -9 52 -6 88 0
74 14 -9 10 -504 15 -519 6z"/>
<path d="M7433 2398 c-2 -5 -2 -12 1 -16 9 -14 539 -9 543 5 4 10 -59 13 -267
15 -150 2 -274 0 -277 -4z"/>
<path d="M72 2394 c10 -9 137 -14 159 -5 18 7 1 10 -69 9 -51 0 -92 -2 -90 -4z"/>
<path d="M265 2390 c3 -5 10 -10 16 -10 5 0 9 5 9 10 0 6 -7 10 -16 10 -8 0
-12 -4 -9 -10z"/>
<path d="M315 2390 c8 -13 35 -13 55 0 11 7 5 10 -23 10 -23 0 -36 -4 -32 -10z"/>
<path d="M507 2393 c18 -2 50 -2 70 0 21 2 7 4 -32 4 -38 0 -55 -2 -38 -4z"/>
<path d="M3347 1918 c-184 -189 -374 -387 -423 -441 l-89 -98 -50 4 c-53 6
-124 27 -192 59 -59 27 -70 15 -32 -33 31 -40 90 -75 162 -99 l39 -12 -29 -30
c-26 -28 -31 -30 -83 -24 -30 4 -84 20 -119 36 -59 28 -81 31 -81 10 0 -14 89
-72 148 -96 l54 -22 -29 -32 c-28 -31 -30 -32 -70 -21 -23 6 -65 27 -95 47
-51 35 -75 37 -85 7 -7 -21 50 -73 111 -103 35 -16 69 -37 76 -46 8 -9 22 -13
35 -10 20 5 27 -5 65 -95 44 -103 79 -144 102 -121 21 21 9 68 -41 173 -49
103 -50 104 -30 124 13 13 19 15 19 6 0 -8 9 -32 19 -55 11 -23 22 -53 25 -67
7 -34 28 -42 55 -23 27 19 28 66 2 108 -10 17 -22 51 -25 76 -6 41 -4 48 22
73 l29 28 13 -60 c14 -68 43 -121 64 -121 25 0 29 63 11 165 l-17 95 53 58
c213 230 413 441 672 708 l98 101 -17 37 c-10 20 -21 36 -25 36 -4 0 -158
-154 -342 -342z"/>
<path d="M4300 2163 c0 -4 42 -50 93 -102 400 -412 703 -740 699 -755 -2 -6
-10 -47 -18 -91 -16 -88 -11 -155 12 -155 22 0 53 58 65 123 l12 58 29 -28
c27 -25 29 -33 24 -72 -3 -24 -15 -58 -26 -76 -27 -43 -26 -90 2 -109 28 -20
58 -4 58 29 0 14 9 42 20 62 11 21 20 44 20 53 0 11 4 10 19 -5 20 -20 19 -21
-26 -115 -65 -136 -70 -216 -10 -177 24 15 28 23 81 139 27 61 38 77 51 72 9
-4 25 2 38 14 12 11 33 23 47 27 36 11 108 62 126 91 13 19 14 27 4 39 -17 21
-21 20 -80 -20 -28 -19 -70 -40 -93 -46 -40 -11 -42 -10 -69 22 l-27 32 55 23
c91 37 160 91 140 111 -3 3 -37 -8 -76 -26 -38 -18 -93 -35 -122 -38 -47 -4
-56 -2 -77 20 -23 25 -22 47 2 47 30 0 135 61 165 95 42 50 29 65 -30 38 -66
-31 -138 -54 -190 -60 l-47 -6 -78 84 c-43 46 -193 203 -334 349 -229 236
-262 267 -301 277 -25 7 -68 28 -97 47 -56 38 -61 40 -61 29z"/>
<path d="M3825 2140 c19 -21 78 -44 97 -38 18 6 -63 58 -91 58 -23 0 -24 -1
-6 -20z"/>
<path d="M4123 2113 c-13 -9 -23 -19 -23 -24 0 -14 23 -10 44 6 28 21 7 37
-21 18z"/>
<path d="M5341 2105 c-29 -13 -43 -14 -86 -4 -46 10 -57 9 -96 -9 -24 -12 -63
-35 -86 -53 -62 -47 -114 -50 -199 -10 -36 17 -80 31 -98 31 -36 0 -80 -26
-70 -42 4 -6 10 -6 17 1 20 20 69 11 131 -23 113 -63 174 -58 282 26 l67 51
51 -13 c44 -10 57 -10 90 4 58 24 76 20 152 -33 38 -27 93 -56 123 -65 96 -28
206 -15 206 24 0 12 -15 14 -80 12 -103 -5 -147 8 -230 64 -76 52 -122 62
-174 39z"/>
<path d="M2792 2075 c-50 -23 -54 -23 -95 -9 -56 20 -93 12 -160 -37 -101 -71
-190 -86 -297 -49 -30 10 -56 17 -58 16 -6 -7 65 -53 97 -64 48 -17 155 -15
198 3 20 8 57 30 83 49 78 56 83 58 130 41 57 -20 62 -20 105 15 46 37 86 39
170 9 115 -41 275 -32 275 15 0 12 -14 14 -87 9 -58 -3 -122 1 -185 11 -122
20 -113 20 -176 -9z"/>
<path d="M4028 2020 c-59 -11 -147 -102 -197 -203 -10 -19 -11 -31 -4 -38 18
-18 54 1 68 35 8 18 21 38 29 46 9 7 16 17 16 22 0 6 13 27 29 47 49 62 154
78 197 30 18 -20 22 -92 5 -113 -4 -6 -11 -23 -15 -37 -3 -15 -23 -41 -43 -58
-21 -17 -46 -37 -55 -45 -9 -8 -26 -19 -37 -26 -42 -22 -11 -47 36 -29 27 10
123 103 123 118 0 5 10 21 22 36 17 22 21 39 19 83 -3 73 -21 106 -71 126 -43
17 -63 18 -122 6z"/>
<path d="M2758 1971 c-36 -16 -80 -32 -97 -36 -17 -4 -31 -11 -31 -17 0 -16
86 -2 170 28 87 30 104 28 218 -32 52 -27 96 -44 117 -44 47 0 45 16 -2 24
-21 3 -74 27 -118 53 -104 61 -159 66 -257 24z"/>
<path d="M4073 1967 c4 -10 -3 -12 -24 -9 -22 3 -29 0 -29 -12 0 -9 5 -16 12
-16 6 0 22 -10 34 -21 15 -14 37 -22 61 -23 51 -1 50 19 -2 45 -22 11 -31 16
-20 13 68 -22 91 -8 35 21 -36 19 -74 20 -67 2z"/>
<path d="M4300 1950 c0 -11 5 -20 10 -20 6 0 10 9 10 20 0 11 -4 20 -10 20 -5
0 -10 -9 -10 -20z"/>
<path d="M3720 1951 c0 -12 37 -24 50 -16 20 12 10 25 -20 25 -16 0 -30 -4
-30 -9z"/>
<path d="M3985 1930 c-9 -14 12 -38 49 -57 17 -8 41 -25 54 -36 18 -17 27 -19
40 -11 28 18 27 44 -1 44 -13 0 -35 8 -48 19 -42 32 -87 52 -94 41z"/>
<path d="M138 1893 c-10 -2 -18 -8 -18 -13 0 -4 9 -6 20 -3 11 3 20 9 20 14 0
5 -1 8 -2 8 -2 -1 -11 -3 -20 -6z"/>
<path d="M3954 1889 c-7 -12 14 -32 76 -73 19 -13 41 -31 49 -40 17 -20 37
-21 45 0 9 23 8 24 -13 24 -10 0 -26 11 -34 24 -9 13 -32 29 -51 36 -19 6 -37
17 -40 25 -6 18 -22 19 -32 4z"/>
<path d="M4933 1885 c7 -21 75 -29 147 -16 38 7 70 16 70 19 0 4 -49 7 -110 7
-69 0 -109 -4 -107 -10z"/>
<path d="M5297 1877 c-37 -13 -99 -45 -137 -71 -44 -30 -85 -50 -110 -53 -55
-8 -50 -23 8 -23 39 0 61 9 130 50 142 85 205 99 332 75 l35 -7 -22 22 c-33
35 -146 38 -236 7z"/>
<path d="M2511 1869 c-18 -6 -68 -14 -110 -18 -73 -7 -75 -8 -46 -20 45 -19
205 13 205 41 0 10 -4 9 -49 -3z"/>
<path d="M2700 1842 c-19 -11 -66 -37 -104 -60 -82 -49 -149 -67 -222 -59 -70
7 -61 -9 10 -18 93 -12 155 7 306 93 91 52 134 45 227 -39 38 -35 87 -58 99
-47 2 3 -23 27 -57 54 -34 27 -72 58 -85 68 -34 28 -128 32 -174 8z"/>
<path d="M3926 1844 c-9 -8 -16 -20 -16 -26 0 -6 -7 -19 -16 -29 -15 -16 -13
-21 16 -64 39 -56 54 -63 91 -41 53 31 98 86 71 86 -9 0 -36 19 -87 63 -38 32
-39 32 -59 11z"/>
<path d="M3660 1820 c0 -16 23 -60 32 -60 9 0 11 31 2 54 -7 17 -34 22 -34 6z"/>
<path d="M5630 1815 c34 -41 142 -69 178 -46 9 5 -6 10 -40 14 -46 4 -73 13
-143 46 -5 2 -3 -4 5 -14z"/>
<path d="M3598 1815 c-10 -10 13 -55 29 -55 7 0 13 4 13 9 0 15 -35 53 -42 46z"/>
<path d="M4418 1782 c16 -15 32 -37 36 -50 7 -21 36 -32 36 -13 0 22 -42 79
-63 85 -38 10 -40 7 -9 -22z"/>
<path d="M2160 1755 c0 -9 66 -35 87 -34 12 0 8 5 -12 14 -44 19 -75 27 -75
20z"/>
<path d="M3802 1748 c-21 -21 -14 -48 11 -48 14 0 44 -20 75 -50 39 -37 60
-50 82 -50 20 0 30 5 30 15 0 8 -6 15 -13 15 -8 0 -36 21 -64 48 -43 41 -95
82 -106 82 -1 0 -8 -5 -15 -12z"/>
<path d="M3515 1740 c3 -5 11 -10 16 -10 6 0 7 5 4 10 -3 6 -11 10 -16 10 -6
0 -7 -4 -4 -10z"/>
<path d="M5361 1719 c-51 -22 -51 -33 0 -19 87 25 145 6 245 -80 102 -87 185
-118 230 -86 18 14 18 15 -11 21 -72 16 -100 30 -177 87 -136 101 -197 117
-287 77z"/>
<path d="M2715 1683 c-11 -2 -68 -27 -126 -54 -61 -29 -127 -52 -156 -56 -64
-7 -83 -17 -66 -34 22 -22 128 6 240 61 114 57 157 68 204 51 44 -15 48 -6 8
18 -33 20 -61 24 -104 14z"/>
<path d="M3770 1671 c-14 -26 -13 -31 6 -31 21 0 84 -49 84 -66 0 -29 73 -47
83 -20 6 14 -19 35 -56 49 -9 4 -21 17 -26 30 -9 23 -51 57 -70 57 -6 0 -15
-9 -21 -19z"/>
<path d="M4230 1669 c0 -5 5 -7 10 -4 6 3 10 8 10 11 0 2 -4 4 -10 4 -5 0 -10
-5 -10 -11z"/>
<path d="M140 1643 c0 -5 99 -8 220 -8 121 0 220 3 220 8 0 4 -99 7 -220 7
-121 0 -220 -3 -220 -7z"/>
<path d="M5201 1641 c-24 -6 -42 -31 -23 -31 22 0 71 23 66 31 -6 10 -8 10
-43 0z"/>
<path d="M0 1631 c0 -10 57 -8 67 3 3 3 -10 6 -30 6 -21 0 -37 -4 -37 -9z"/>
<path d="M7506 1628 c3 -4 42 -7 87 -7 94 1 85 6 -20 11 -39 2 -69 0 -67 -4z"/>
<path d="M3610 1614 c-14 -7 -49 -23 -77 -35 -56 -23 -71 -49 -28 -49 34 0
122 45 135 69 18 35 12 38 -30 15z"/>
<path d="M7731 1625 c7 -7 229 -8 236 -1 4 3 -49 6 -117 6 -68 0 -121 -2 -119
-5z"/>
<path d="M3733 1604 c-4 -10 1 -20 13 -27 10 -6 35 -27 54 -48 35 -38 84 -64
101 -53 17 10 9 21 -31 48 -23 15 -46 38 -52 51 -6 13 -24 29 -41 35 -38 13
-36 13 -44 -6z"/>
<path d="M4340 1596 c0 -8 7 -16 15 -19 8 -4 29 -31 46 -62 28 -51 73 -95 84
-83 7 7 -52 122 -71 140 -30 26 -74 41 -74 24z"/>
<path d="M5296 1564 c-49 -24 -100 -44 -113 -44 -13 0 -23 -5 -23 -10 0 -19
32 -23 69 -10 45 15 180 92 181 103 0 14 -26 5 -114 -39z"/>
<path d="M2200 1581 c0 -11 25 -21 51 -21 26 0 24 16 -3 24 -32 8 -48 7 -48
-3z"/>
<path d="M4128 1575 c-44 -16 -98 -54 -98 -70 0 -5 -9 -27 -20 -48 -11 -20
-20 -47 -20 -58 0 -12 -5 -39 -12 -61 -9 -32 -9 -44 5 -73 29 -60 45 -45 41
36 -2 40 1 89 6 109 12 45 101 144 107 119 3 -14 70 -59 87 -59 3 0 6 7 6 15
0 8 -18 24 -41 35 -23 12 -38 24 -35 27 12 13 91 -52 94 -77 2 -14 8 -30 13
-36 12 -15 -3 -85 -25 -119 -9 -13 -16 -31 -16 -38 0 -8 -7 -29 -16 -47 -18
-35 -11 -63 17 -67 14 -3 59 81 59 110 0 9 4 18 9 21 4 3 11 35 14 72 9 92
-16 151 -82 194 -26 16 -50 30 -52 29 -2 0 -21 -7 -41 -14z"/>
<path d="M4656 1574 c-9 -23 -2 -28 13 -10 7 8 8 17 3 20 -6 3 -13 -1 -16 -10z"/>
<path d="M3680 1513 c-56 -91 -26 -174 69 -189 38 -6 45 -4 69 23 33 36 62 79
62 93 0 23 -30 8 -50 -25 -12 -19 -30 -40 -40 -45 -84 -45 -139 59 -70 129 35
34 39 61 10 61 -13 0 -30 -17 -50 -47z"/>
<path d="M3255 1509 c-4 -6 -5 -13 -1 -16 8 -9 96 7 96 18 0 13 -87 11 -95 -2z"/>
<path d="M3746 1504 c-10 -26 -7 -32 19 -38 13 -3 30 -16 36 -27 9 -17 13 -19
20 -8 13 21 11 39 -6 39 -9 0 -20 11 -25 25 -11 28 -35 33 -44 9z"/>
<path d="M4110 1492 c0 -21 51 -62 78 -62 10 0 23 -5 30 -12 14 -14 38 4 28
20 -7 12 -112 72 -126 72 -5 0 -10 -8 -10 -18z"/>
<path d="M3704 1456 c-3 -8 -4 -27 -2 -43 3 -26 6 -28 48 -28 61 0 66 25 11
59 -47 30 -50 31 -57 12z"/>
<path d="M4078 1453 c-7 -27 2 -43 23 -43 11 0 37 -9 59 -20 39 -20 71 -25 83
-14 10 10 -38 44 -61 44 -11 0 -34 11 -50 25 -35 30 -48 31 -54 8z"/>
<path d="M2213 1435 c4 -12 100 -19 134 -10 51 12 20 25 -57 22 -48 -1 -78 -6
-77 -12z"/>
<path d="M3225 1419 c-4 -6 -5 -12 -2 -15 7 -7 37 7 37 17 0 13 -27 11 -35 -2z"/>
<path d="M4047 1413 c-4 -3 -7 -14 -7 -23 0 -13 14 -21 47 -30 26 -6 52 -15
58 -19 5 -5 27 -11 48 -15 33 -6 37 -5 37 13 0 13 -5 18 -14 15 -7 -3 -29 4
-47 15 -19 12 -47 21 -62 21 -15 0 -30 7 -33 15 -7 16 -17 19 -27 8z"/>
<path d="M4685 1410 c-7 -11 21 -50 37 -50 15 0 8 27 -11 44 -13 12 -21 14
-26 6z"/>
<path d="M4045 1350 c-9 -15 -8 -131 2 -140 10 -10 34 -13 89 -11 37 1 42 4
58 40 24 52 18 75 -19 79 -17 2 -34 8 -39 13 -6 5 -20 9 -32 9 -13 0 -26 5
-29 10 -8 13 -22 13 -30 0z"/>
<path d="M3223 1318 c-46 -23 -26 -29 133 -44 56 -5 77 -3 103 11 18 9 30 19
27 22 -3 3 -29 6 -58 8 -29 1 -82 5 -118 9 -41 4 -73 2 -87 -6z"/>
<path d="M4492 1323 c32 -67 40 -74 53 -53 9 15 -22 60 -41 60 -9 0 -14 -3
-12 -7z"/>
<path d="M3841 1270 c-39 -33 -36 -51 4 -24 26 17 53 54 38 54 -4 -1 -23 -14
-42 -30z"/>
<path d="M4396 1285 c-3 -8 -1 -15 3 -15 5 0 11 7 15 15 3 8 1 15 -3 15 -5 0
-11 -7 -15 -15z"/>
<path d="M4767 1283 c-13 -12 -7 -19 27 -31 18 -7 41 -21 51 -32 24 -26 37
-25 33 2 -2 14 -18 31 -43 45 -42 24 -57 27 -68 16z"/>
<path d="M3885 1220 c-3 -5 1 -10 9 -10 9 0 16 5 16 10 0 6 -4 10 -9 10 -6 0
-13 -4 -16 -10z"/>
<path d="M3585 1204 c-45 -32 -125 -119 -125 -136 0 -27 16 -22 47 14 16 18
45 51 66 75 40 44 47 73 12 47z"/>
<path d="M3980 1197 c0 -32 33 -57 75 -57 45 0 95 -17 111 -37 13 -17 15 -17
29 1 8 11 15 23 15 28 0 12 -56 38 -82 38 -30 0 -117 27 -134 41 -11 9 -14 6
-14 -14z"/>
<path d="M3774 1137 c-11 -12 -39 -38 -62 -58 -39 -33 -57 -79 -32 -79 19 0
120 106 126 133 7 33 -4 34 -32 4z"/>
<path d="M3068 1142 c-16 -2 -28 -9 -28 -18 0 -16 27 -19 49 -5 21 13 9 26
-21 23z"/>
<path d="M3966 1123 c-11 -27 25 -49 93 -57 34 -4 65 -13 72 -22 12 -14 14
-14 26 2 7 10 13 24 13 30 0 17 -67 35 -97 28 -14 -4 -31 0 -41 9 -29 25 -59
30 -66 10z"/>
<path d="M3198 1118 c-26 -9 -36 -27 -22 -40 5 -6 72 18 84 29 4 4 -21 23 -30
22 -3 0 -17 -5 -32 -11z"/>
<path d="M4720 1071 c0 -9 61 -51 74 -51 17 0 2 23 -26 40 -36 22 -48 25 -48
11z"/>
<path d="M4900 1076 c0 -8 47 -56 54 -56 15 0 4 40 -13 50 -20 10 -41 13 -41
6z"/>
<path d="M3930 1045 c0 -21 54 -46 113 -51 28 -2 55 -8 61 -14 15 -15 26 -12
26 8 -1 26 -47 55 -76 48 -13 -4 -40 0 -60 9 -46 19 -64 19 -64 0z"/>
<path d="M4357 1042 c-9 -10 -20 -40 -23 -65 -6 -41 -5 -47 10 -41 16 6 19 15
31 87 7 42 5 44 -18 19z"/>
<path d="M4570 1018 c0 -24 11 -48 22 -48 5 0 6 10 3 23 -10 30 -25 46 -25 25z"/>
<path d="M3895 978 c-8 -17 -18 -54 -20 -82 -5 -47 -3 -53 22 -72 16 -12 46
-25 69 -28 35 -6 45 -4 72 19 32 27 73 127 58 142 -14 14 -41 -15 -44 -48 -7
-65 -87 -104 -125 -61 -21 23 -21 78 -2 112 18 32 18 37 0 43 -9 4 -20 -5 -30
-25z"/>
<path d="M3318 979 c-10 -6 -18 -17 -18 -24 0 -19 8 -19 27 0 20 20 13 37 -9
24z"/>
<path d="M3735 980 c-11 -17 5 -32 21 -19 8 6 14 15 14 20 0 12 -27 11 -35 -1z"/>
<path d="M3947 973 c-15 -15 -6 -33 17 -33 14 0 28 -4 31 -10 11 -17 42 -11
48 10 6 25 -5 32 -38 24 -15 -4 -25 -2 -25 5 0 12 -23 15 -33 4z"/>
<path d="M3053 955 c-9 -25 4 -29 17 -6 7 15 7 21 0 21 -6 0 -13 -7 -17 -15z"/>
<path d="M3540 950 c0 -5 5 -10 10 -10 6 0 10 5 10 10 0 6 -4 10 -10 10 -5 0
-10 -4 -10 -10z"/>
<path d="M4260 952 c0 -6 -3 -17 -6 -26 -4 -11 -1 -16 10 -16 9 0 16 7 16 15
0 8 0 18 1 22 0 4 -4 9 -10 11 -6 2 -11 -1 -11 -6z"/>
<path d="M4896 941 c-8 -12 3 -41 15 -41 5 0 9 11 9 25 0 25 -14 34 -24 16z"/>
<path d="M3933 923 c-33 -11 3 -83 41 -83 23 0 56 28 56 47 0 13 -79 42 -97
36z"/>
<path d="M4740 910 c0 -11 5 -20 10 -20 6 0 10 9 10 20 0 11 -4 20 -10 20 -5
0 -10 -9 -10 -20z"/>
<path d="M3410 900 c0 -11 5 -20 10 -20 6 0 10 9 10 20 0 11 -4 20 -10 20 -5
0 -10 -9 -10 -20z"/>
<path d="M0 878 l0 -28 208 7 c114 3 236 6 272 5 61 0 90 9 90 29 0 5 -128 10
-285 11 l-285 3 0 -27z"/>
<path d="M3161 900 c-7 -4 -12 -13 -10 -19 3 -8 10 -8 23 2 21 15 9 31 -13 17z"/>
<path d="M4462 888 c5 -15 28 -18 29 -3 0 6 -7 12 -17 13 -10 3 -15 -1 -12
-10z"/>
<path d="M3678 883 c-29 -7 -20 -23 13 -23 19 0 29 4 27 12 -5 14 -17 17 -40
11z"/>
<path d="M7352 868 c-20 -20 -14 -24 36 -22 58 1 104 13 96 25 -8 13 -118 11
-132 -3z"/>
<path d="M7830 854 c156 -17 155 -17 140 1 -10 12 -37 15 -134 14 l-121 -2
115 -13z"/>
<path d="M7193 295 c0 -8 4 -15 8 -15 4 0 9 7 13 15 3 9 0 15 -8 15 -7 0 -13
-7 -13 -15z"/>
<path d="M3324 11 c10 -4 273 -8 585 -9 360 -1 555 2 536 8 -34 11 -1149 12
-1121 1z"/>
<path d="M5255 9 c-22 -3 210 -6 515 -6 305 -1 548 1 540 3 -26 7 -1013 9
-1055 3z"/>
</g>
</svg>
